<svg id="visual" viewBox="0 0 900 600" width="900" height="600" xmlns="http://www.w3.org/2000/svg" xmlns:xlink="http://www.w3.org/1999/xlink" version="1.1"><path d="M407 0L359 0L359 86L446 86L446 171L496 171L496 257L383 257L383 343L454 343L454 429L512 429L512 514L397 514L397 600L0 600L0 514L0 514L0 429L0 429L0 343L0 343L0 257L0 257L0 171L0 171L0 86L0 86L0 0L0 0Z" fill="#fadfca"></path><path d="M272 0L323 0L323 86L297 86L297 171L271 171L271 257L366 257L366 343L263 343L263 429L302 429L302 514L346 514L346 600L0 600L0 514L0 514L0 429L0 429L0 343L0 343L0 257L0 257L0 171L0 171L0 86L0 86L0 0L0 0Z" fill="#c7986f"></path><path d="M174 0L128 0L128 86L150 86L150 171L110 171L110 257L215 257L215 343L104 343L104 429L194 429L194 514L98 514L98 600L0 600L0 514L0 514L0 429L0 429L0 343L0 343L0 257L0 257L0 171L0 171L0 86L0 86L0 0L0 0Z" fill="#905619"></path></svg>