<svg id="visual" viewBox="0 0 900 600" width="900" height="600" xmlns="http://www.w3.org/2000/svg" xmlns:xlink="http://www.w3.org/1999/xlink" version="1.1"><path d="M470 0L512 0L512 86L484 86L484 171L360 171L360 257L484 257L484 343L495 343L495 429L427 429L427 514L375 514L375 600L0 600L0 514L0 514L0 429L0 429L0 343L0 343L0 257L0 257L0 171L0 171L0 86L0 86L0 0L0 0Z" fill="#d9b76c"></path><path d="M375 0L324 0L324 86L296 86L296 171L295 171L295 257L254 257L254 343L299 343L299 429L253 429L253 514L296 514L296 600L0 600L0 514L0 514L0 429L0 429L0 343L0 343L0 257L0 257L0 171L0 171L0 86L0 86L0 0L0 0Z" fill="#9eaa68"></path><path d="M96 0L129 0L129 86L169 86L169 171L230 171L230 257L217 257L217 343L194 343L194 429L175 429L175 514L117 514L117 600L0 600L0 514L0 514L0 429L0 429L0 343L0 343L0 257L0 257L0 171L0 171L0 86L0 86L0 0L0 0Z" fill="#6d986e"></path></svg>